<svg xmlns="http://www.w3.org/2000/svg" xml:space="preserve" style="enable-background:new 0 0 508 508" viewBox="0 0 508 508" width="32" height="32"><circle cx="254" cy="254" r="254" style="fill:#84dbff"/><path d="M317.411 147.101h4v109.102h-4z" style="fill:#2b3b4e" transform="rotate(-174.747 319.41 201.645)"/><path d="M133.875 199.675h109.096v4H133.875z" style="fill:#2b3b4e" transform="scale(-1) rotate(84.71 221.222 -206.693)"/><path d="M115.511 251.294h97.403v4h-97.403z" style="fill:#2b3b4e" transform="scale(-1) rotate(83.864 281.978 -182.808)"/><path d="M341.696 204.598h4v97.398h-4z" style="fill:#2b3b4e" transform="rotate(-173.88 343.7 253.3)"/><path d="m387.7 208.9-97.4-31.7c-4.9-1.6-5.1-8.5-.3-10.4l55.7-22c3.1-1.2 4.6-4.8 2.8-7.6-1.3-2.1-3.8-2.9-6-2.2l-75.4 24.6c-10 3.3-20.7 3.3-30.7 0L161.1 135c-2.2-.7-4.7.1-6 2.2-1.8 2.8-.3 6.4 2.8 7.6l55.7 22c4.8 1.9 4.6 8.8-.3 10.4l-97.4 31.7c-3.6 1.2-4.8 5.8-2 8.5l11.1 11.1c1.4 1.4 3.6 1.9 5.5 1.1L233.6 189c11.7-4.6 24.7-4.6 36.3 0L373 229.7c1.9.8 4.1.3 5.5-1.1l11.1-11.1c2.9-2.8 1.8-7.4-1.9-8.6z" style="fill:#324a5e"/><path d="M452.6 195.6c0 3.9-.9 7-15 7s-36.1-3.1-36.1-7 22-7 36.1-7 15 3.2 15 7zM333.6 195.6c0 3.9.9 7 15 7s36.1-3.1 36.1-7-22-7-36.1-7-15 3.2-15 7z" style="fill:#fff"/><path d="M414.1 219.1c0 15.7-9.4 23-21 23s-21-7.2-21-23 9.4-34 21-34 21 18.2 21 34z" style="fill:#acb3ba"/><path d="M411.7 204.6c-3.5-10.7-10.5-19.6-18.6-19.6s-15.1 8.9-18.6 19.6h37.2z" style="fill:#e6e9ee"/><path d="M174.4 195.6c0 3.9-.9 7-15 7s-36.1-3.1-36.1-7 22-7 36.1-7 15 3.2 15 7zM55.4 195.6c0 3.9.9 7 15 7s36.1-3.1 36.1-7-22-7-36.1-7-15 3.2-15 7z" style="fill:#fff"/><path d="M135.9 219.1c0 15.7-9.4 23-21 23s-21-7.2-21-23 9.4-34 21-34 21 18.2 21 34z" style="fill:#acb3ba"/><path d="M133.5 204.6C130 193.9 123 185 114.9 185s-15.1 8.9-18.6 19.6h37.2z" style="fill:#e6e9ee"/><path d="M391.3 122.3c0 2.7-.6 4.9-10.4 4.9-9.7 0-24.9-2.2-24.9-4.9s15.2-4.9 24.9-4.9c9.7.1 10.4 2.3 10.4 4.9zM309 122.3c0 2.7.6 4.9 10.4 4.9s24.9-2.2 24.9-4.9-15.2-4.9-24.9-4.9-10.4 2.3-10.4 4.9z" style="fill:#fff"/><path d="M364.6 138.5c0 10.9-6.5 15.9-14.5 15.9s-14.5-5-14.5-15.9 6.5-23.5 14.5-23.5c8.1 0 14.5 12.7 14.5 23.5z" style="fill:#acb3ba"/><path d="M363 128.5c-2.4-7.4-7.3-13.5-12.8-13.5-5.6 0-10.4 6.1-12.8 13.5H363z" style="fill:#e6e9ee"/><path d="M199 122.3c0 2.7-.6 4.9-10.4 4.9-9.7 0-24.9-2.2-24.9-4.9s15.2-4.9 24.9-4.9c9.7.1 10.4 2.3 10.4 4.9zM116.7 122.3c0 2.7.6 4.9 10.4 4.9 9.7 0 24.9-2.2 24.9-4.9s-15.2-4.9-24.9-4.9c-9.7.1-10.4 2.3-10.4 4.9z" style="fill:#fff"/><path d="M172.4 138.5c0 10.9-6.5 15.9-14.5 15.9s-14.5-5-14.5-15.9 6.5-23.5 14.5-23.5 14.5 12.7 14.5 23.5z" style="fill:#acb3ba"/><path d="M170.7 128.5c-2.4-7.4-7.3-13.5-12.8-13.5-5.6 0-10.4 6.1-12.8 13.5h25.6z" style="fill:#e6e9ee"/><path d="M166.5 275.3h175v144.1h-175z" style="fill:#fff"/><path d="M235 275.3h38V289h-38z" style="fill:#f1543f"/><path d="M280.7 329.1h-53.4c-5.1 0-9.2-4.1-9.2-9.2s4.1-9.2 9.2-9.2h53.4c5.1 0 9.2 4.1 9.2 9.2s-4.1 9.2-9.2 9.2zM315.2 247.4l26.3 27.9h-175l26.3-27.9z" style="fill:#e6e9ee"/><path d="m273 275.3-5.9-27.9h-26.2l-5.9 27.9z" style="fill:#ff7058"/></svg>