<?xml version="1.0" encoding="utf-8"?>
<!-- Generator: Adobe Illustrator 26.0.1, SVG Export Plug-In . SVG Version: 6.00 Build 0)  -->
<svg height="32" width="32" version="1.1" id="Layer_1" xmlns="http://www.w3.org/2000/svg" xmlns:xlink="http://www.w3.org/1999/xlink" x="0px"
	y="0px" viewBox="0 0 935.3 1080" style="enable-background:new 0 0 935.3 1080;" xml:space="preserve">
	<style type="text/css">
		.st0 {
			fill: #59A1D8;
		}
	</style>
	<path class="st0" d="M467.7,0L0,270v540l467.7,270l467.7-270V270L467.7,0z M392.9,670.8c15,25.7,40.8,38.5,77.5,38.5
	c31,0,54.8-7.3,71.2-21.9c16.4-14.6,25.1-37.8,26.2-69.6h134.3c-1.8,39-12.3,73.4-31.5,103.3c-19.2,29.9-46.2,53-81,69.4
	c-34.8,16.4-74.4,24.6-119.1,24.6c-73.6,0-131.6-24-173.9-71.9c-42.3-48-63.5-115.7-63.5-203.2v-27.7c0-54.9,9.6-102.9,28.7-144.1
	c19.1-41.2,46.6-73,82.5-95.4c35.9-22.4,77.5-33.7,124.7-33.7c68,0,122.6,17.9,163.9,53.7c41.3,35.8,64.8,85.1,70.4,147.9H568.6
	c-1-34.1-9.6-58.6-25.8-73.5c-16.2-14.9-40.8-22.3-73.9-22.3c-33.6,0-58.2,12.6-73.9,37.7c-15.6,25.1-23.9,65.3-24.6,120.4v39.6
	C370.4,602.4,377.9,645.1,392.9,670.8z" />
	<g>
	</g>
	<g>
	</g>
	<g>
	</g>
	<g>
	</g>
	<g>
	</g>
	<g>
	</g>
	<g>
	</g>
	<g>
	</g>
	<g>
	</g>
	<g>
	</g>
	<g>
	</g>
	<g>
	</g>
	<g>
	</g>
	<g>
	</g>
	<g>
	</g>
</svg>