<svg xmlns="http://www.w3.org/2000/svg" xml:space="preserve" viewBox="0 0 495 495" width="32" height="32"><path d="M247.5 212.499c-14.001 11.358-26.197 25.424-35.749 41.971-9.552 16.547-15.644 34.138-18.473 51.948 16.841 6.451 35.118 9.976 54.221 9.976s37.38-3.525 54.221-9.976c-2.829-17.809-8.921-35.4-18.473-51.948s-21.746-30.613-35.747-41.971z" style="fill:#fff"/><path d="M247.5 212.499c14.001 11.358 26.197 25.424 35.749 41.971s15.644 34.138 18.473 51.948c49.87-19.082 87.098-63.697 95.681-117.853-51.197-19.648-108.454-9.715-149.903 23.934z" style="fill:#005ece"/><path d="M193.279 306.418c2.828-17.809 8.921-35.4 18.473-51.948 9.552-16.547 21.747-30.614 35.749-41.971-41.449-33.649-98.706-43.582-149.903-23.934 8.583 54.156 45.811 98.771 95.681 117.853z" style="fill:#46f8ff"/><path d="M301.721 306.418c-16.841 6.451-35.118 9.976-54.221 9.976s-37.38-3.525-54.221-9.976c-8.42 52.72 11.608 107.268 54.221 141.776 42.613-34.509 62.642-89.056 54.221-141.776z" style="fill:#f9b949"/><path d="M419.084 198.911a152.344 152.344 0 0 0-21.682-10.346c-8.584 54.156-45.812 98.771-95.681 117.853 8.42 52.72-11.608 107.268-54.221 141.776a150.892 150.892 0 0 0 19.8 13.61c72.596 41.917 165.427 17.037 207.344-55.559 41.906-72.597 17.036-165.417-55.56-207.334z" style="fill:#bddbff"/><path d="M193.279 306.418c-49.87-19.082-87.098-63.697-95.681-117.853a152.344 152.344 0 0 0-21.682 10.346C3.32 240.828-21.55 333.648 20.356 406.244 62.273 478.84 155.104 503.72 227.7 461.803a150.96 150.96 0 0 0 19.8-13.61c-42.613-34.508-62.642-89.055-54.221-141.775z" style="fill:#ffda44"/><path d="M247.5 212.499c41.449-33.649 98.706-43.582 149.903-23.934 1.24-7.8 1.882-15.807 1.882-23.956 0-83.823-67.961-151.774-151.785-151.774-83.823 0-151.785 67.951-151.785 151.774 0 8.148.642 16.155 1.882 23.956 51.197-19.648 108.454-9.715 149.903 23.934z" style="fill:#2488ff"/></svg>