<svg xmlns="http://www.w3.org/2000/svg" xml:space="preserve" viewBox="0 0 512 512" width="32" height="32"><path fill="#FFF" d="M513 186v326.94H1c0-108.63 0-217.319.327-326.359 1.03.949 1.521 2.43 2.466 3.519a9390.426 9390.426 0 0 0 35.8 40.979c7.95 9.049 16.03 17.985 23.955 27.054 10.732 12.28 21.333 24.675 32.064 36.956 7.926 9.07 16.03 17.984 23.945 27.064 10.39 11.918 20.623 23.972 31.013 35.89 7.916 9.078 16.028 17.985 23.954 27.056 10.732 12.28 21.375 24.638 32.043 36.974 5.923 6.85 11.734 13.797 17.749 20.565 6.126 6.894 12.44 13.623 18.68 20.394.007-.032-.057-.038.027.221.383.45.682.64 1.114 1.136 3.464 4.292 7.211 7.417 13.323 6.544 6.523.26 10.727-2.678 13.812-7.958.444-.352.62-.653.763-.95-.035.005-.003.068.315-.06 2.935-3.08 5.552-6.03 8.17-8.979 5.352-6.028 10.754-12.011 16.045-18.092 10.665-12.258 21.225-24.608 31.914-36.845 7.9-9.044 15.992-17.918 23.894-26.96 10.802-12.358 21.473-24.831 32.262-37.202 7.565-8.674 15.28-17.216 22.841-25.894 10.674-12.25 21.23-24.603 31.909-36.85 5.625-6.45 11.478-12.701 17.093-19.16 10.332-11.888 20.586-23.844 30.832-35.806 8.593-10.033 17.129-20.116 25.69-30.177zM1 175V1.044h512c0 57.643 0 115.33-.303 173.321-.993-.977-1.446-2.48-2.408-3.502-7.39-7.856-14.802-15.694-22.352-23.397a21023.48 21023.48 0 0 0-62.272-63.276c-12.17-12.311-24.353-24.615-36.81-36.63-2.313-2.232-5.946-4.31-9.003-4.36-20.63-.326-41.27-.087-62.369-.092-20.432-.054-40.403-.047-60.849-.065-20.561-.004-40.648.018-61.197.015-19.601-.037-38.743.097-57.88-.148-5.593-.071-9.82 1.722-13.694 5.65-32.697 33.164-65.489 66.235-98.256 99.33-3.162 3.193-6.504 6.221-9.497 9.565C10.963 163.205 6.026 169.14 1 175z"/><path fill="#A0EBFF" d="M1 175.417c5.026-6.276 9.963-12.213 15.11-17.962 2.993-3.344 6.335-6.372 9.497-9.566 32.767-33.094 65.559-66.165 98.256-99.329 3.874-3.928 8.101-5.721 13.694-5.65 19.137.245 38.279.111 57.763.461-9.117 16.915-18.581 33.49-28.04 50.067-11.924 20.902-23.87 41.791-35.749 62.719-4.156 7.321-8.14 14.74-13.1 23.74 47.039 0 92.71 0 138.442.47.082 2.802.124 5.131.124 7.46.021 94.356.038 188.71.056 283.066-5.705.913-9.452-2.212-12.997-6.77-.516-.757-.816-.943-1.117-1.129 0 0 .064.006.085-.344-.203-1.145-.335-1.98-.666-2.727-8.296-18.69-16.617-37.37-24.924-56.056-13.643-30.686-27.306-61.364-40.91-92.067-18.856-42.556-37.699-85.119-56.423-127.733-1.322-3.008-2.75-4.192-6.185-4.179-37.638.152-75.277.105-112.916.112v-4.583z"/><path fill="#41B4E6" d="M1 180.428c37.639-.435 75.278-.388 112.916-.54 3.435-.013 4.863 1.171 6.185 4.179 18.724 42.614 37.567 85.177 56.422 127.733 13.605 30.703 27.268 61.38 40.911 92.067 8.307 18.686 16.628 37.365 24.924 56.056.331.747.463 1.582.658 2.758-6.26-6.42-12.574-13.149-18.7-20.043-6.015-6.768-11.826-13.716-17.75-20.565-10.667-12.336-21.31-24.694-32.042-36.974-7.926-9.07-16.038-17.978-23.954-27.057-10.39-11.917-20.623-23.971-31.013-35.89-7.914-9.079-16.02-17.993-23.945-27.063-10.73-12.28-21.332-24.675-32.064-36.956-7.926-9.07-16.005-18.005-23.955-27.054a9390.426 9390.426 0 0 1-35.8-40.979c-.945-1.088-1.436-2.57-2.466-3.985C1 184.285 1 182.571 1 180.428z"/><path fill="#0073AA" d="M513 185.572c-8.561 10.489-17.097 20.572-25.69 30.605-10.246 11.962-20.5 23.918-30.832 35.805-5.615 6.46-11.468 12.711-17.093 19.162-10.678 12.246-21.235 24.599-31.909 36.849-7.56 8.678-15.276 17.22-22.841 25.894-10.789 12.37-21.46 24.844-32.262 37.203-7.902 9.04-15.994 17.915-23.894 26.959-10.689 12.237-21.249 24.587-31.914 36.845-5.29 6.08-10.693 12.064-16.045 18.092-2.618 2.95-5.235 5.9-8.292 8.595 5.222-13.492 10.762-26.784 16.57-39.957 14.027-31.821 28.195-63.58 42.28-95.377a72650.872 72650.872 0 0 0 44.007-99.503c6.819-15.455 13.532-30.958 20.727-46.541a676.34 676.34 0 0 1 16.398-.235c33.269-.059 66.538-.102 100.048-.079.408.085.575.098.742.111v5.572z"/><path fill="#73C8F0" d="M512.017 179.817c-33.27.049-66.538.092-99.807.151-5.321.01-10.642.087-16.492.162-.53.03-.712-.124-.758-.477-5.033-9.162-10.013-17.975-15.01-26.778-10.743-18.921-21.526-37.818-32.233-56.759-9.964-17.626-19.851-35.296-29.773-52.947 20.637-.056 41.277-.295 61.908.032 3.057.048 6.69 2.127 9.003 4.358 12.457 12.016 24.64 24.32 36.81 36.63a21023.48 21023.48 0 0 1 62.272 63.277c7.55 7.703 14.962 15.54 22.352 23.397.962 1.023 1.415 2.525 2.408 3.97.303 1.234.303 2.3.098 3.849-.462.642-.653.86-.778 1.135z"/><path fill="#68C0E9" d="M512.258 179.89c-.116-.349.075-.566.537-.808.205-.082.205.418.205.668-.167.237-.334.224-.742.14z"/><path fill="#73C8F0" d="M395.284 180.232a4793.735 4793.735 0 0 1-20.2 46.512 72650.872 72650.872 0 0 1-44.006 99.503c-14.085 31.796-28.253 63.556-42.28 95.377-5.808 13.173-11.348 26.465-16.887 40.086.12.383.089.32-.175.29-.419.323-.575.674-.73 1.026-2.82 5.23-7.023 8.167-13.546 7.907-.425-94.395-.442-188.75-.463-283.106 0-2.329-.042-4.658-.045-7.457.02-.47.134-.36.595-.372 46.127-.006 91.793.001 137.46.008 0 0 .182.154.277.226z"/><path fill="#0073AA" d="M271.272 462.975c-.11-.3.045-.652.5-.98.12.327-.056.628-.5.98z"/><path fill="#41B4E6" d="M243.023 463.253c.217-.073.517.113.9.564-.218.076-.517-.114-.9-.564z"/><path fill="#D2F0FF" d="M256.892 179.898c-45.75-.002-91.422-.002-138.46-.002 4.958-9 8.943-16.418 13.1-23.74 11.878-20.927 23.824-41.816 35.749-62.718 9.458-16.578 18.922-33.152 28.5-50.041 20.205-.336 40.292-.358 60.796.106.448 45.827.479 91.167.51 136.507 0 0-.115-.11-.195-.112z"/><path fill="#41B4E6" d="M257.547 179.998c-.491-45.328-.522-90.668-.495-136.47 20.028-.467 39.999-.474 60.431-.42 10.383 17.712 20.27 35.382 30.234 53.008 10.707 18.94 21.49 37.838 32.232 56.759 4.998 8.803 9.978 17.616 15.011 26.778-45.62.346-91.286.34-137.413.345z"/></svg>